<?xml version="1.0" encoding="UTF-8" standalone="no"?>
<!DOCTYPE svg PUBLIC "-//W3C//DTD SVG 1.1//EN" "http://www.w3.org/Graphics/SVG/1.1/DTD/svg11.dtd">
<svg width="100%" height="100%" viewBox="0 0 1080 1080" version="1.1" xmlns="http://www.w3.org/2000/svg" xmlns:xlink="http://www.w3.org/1999/xlink" xml:space="preserve" xmlns:serif="http://www.serif.com/" style="fill-rule:evenodd;clip-rule:evenodd;stroke-linecap:round;stroke-linejoin:round;stroke-miterlimit:1.5;">
    <path d="M999.86,229.602L59.447,229.602L118.298,938.287C118.298,938.287 220.393,1019.91 553.65,1010.2C947.062,998.733 967.846,936.794 967.846,936.794L999.86,229.602Z" style="fill:rgb(146,12,12);stroke:black;stroke-width:32px;"/>
    <g transform="matrix(1,0,0,1,8.40505,-126.687)">
        <ellipse cx="521.145" cy="351.161" rx="469.65" ry="166.219" style="fill:rgb(184,58,58);stroke:black;stroke-width:32px;"/>
    </g>
    <ellipse cx="565.972" cy="618.817" rx="60.052" ry="54.414" style="fill:rgb(47,29,29);stroke:black;stroke-width:6px;"/>
    <path d="M570.013,619.252C489.289,680.274 -171.105,1217.94 69.058,431.604" style="fill:none;stroke:black;stroke-width:32px;"/>
    <g transform="matrix(1.02551,0,0,1.33655,-29.9948,-98.4178)">
        <path d="M535.743,162.413C570.903,162.413 606.065,161.951 641.222,162.391C732.8,163.538 828.601,163.364 918.635,184.046C947.935,190.777 969.077,193.493 985.027,217.973C987.59,221.906 990.058,225.932 992.019,230.197C1015.3,280.823 1025.75,336.149 1033.99,390.924C1046.36,473.136 1052.37,556.714 1052.12,639.824C1052.11,641.8 1052.08,643.781 1052.03,645.767C1051.18,677.25 1044.71,709.839 1045.06,741.104C1045.79,805.668 1160.05,908.114 1151.61,907.703C1140.47,907.161 649.203,944.603 642.567,938.554C607.832,906.894 842.578,858.354 813.087,822.835C740.971,735.977 763.66,462.952 664.897,405.506C633.13,387.028 595.949,374.516 559.367,370.875C523.488,367.304 487.253,369.304 451.262,367.131C378.256,362.723 304.576,352.957 233.98,333.317C216.135,328.353 198.657,322.118 181.251,315.783C173.837,313.084 166.679,309.704 159.59,306.242C153.372,303.205 147.257,299.931 141.364,296.304C124.77,286.09 99.616,266.9 109.522,243.989C111.085,240.374 113.42,237.074 116.044,234.138C119.177,230.632 122.829,227.578 126.645,224.83C131.215,221.537 136.106,218.68 141.105,216.084C151.838,210.51 169.386,203.549 180.726,200.362C198.076,195.484 215.496,190.759 233.15,187.133C276.63,178.205 325.386,172.41 369.381,168.81C424.13,164.331 480.862,162.413 535.743,162.413Z" style="fill:rgb(71,73,171);"/>
    </g>
    <ellipse cx="504.327" cy="240.882" rx="0.17" ry="19.466" style="fill:rgb(53,56,224);"/>
</svg>
