<?xml version="1.0" encoding="UTF-8" standalone="no"?>
<!DOCTYPE svg PUBLIC "-//W3C//DTD SVG 1.1//EN" "http://www.w3.org/Graphics/SVG/1.1/DTD/svg11.dtd">
<svg width="100%" height="100%" viewBox="0 0 1080 1080" version="1.1" xmlns="http://www.w3.org/2000/svg" xmlns:xlink="http://www.w3.org/1999/xlink" xml:space="preserve" xmlns:serif="http://www.serif.com/" style="fill-rule:evenodd;clip-rule:evenodd;stroke-linecap:round;stroke-linejoin:round;stroke-miterlimit:1.5;">
    <g>
        <g transform="matrix(0.615033,0,0,0.615033,189.605,61.5002)">
            <ellipse cx="531.103" cy="419.003" rx="207.514" ry="201.748" style="fill:rgb(235,235,235);stroke:black;stroke-width:32.52px;"/>
        </g>
        <g transform="matrix(1,0,0,0.525193,0,212.597)">
            <path d="M525.218,447.755L525.218,1001.43" style="fill:none;stroke:black;stroke-width:25.04px;"/>
        </g>
        <g transform="matrix(1.00075,0,0,3.19077,-0.502401,-1952.52)">
            <path d="M671.236,974.753L525.218,839.25L411.09,984.197" style="fill:none;stroke:black;stroke-width:8.46px;"/>
        </g>
        <g transform="matrix(1,0,0,1,3.375,-9.09195)">
            <path d="M436.306,571.661L522.281,566.706C522.281,566.706 612.895,574.479 667.941,543.596C705.685,522.421 715.725,521.765 728.743,477.259C734.711,456.855 664.069,280.264 664.069,280.264" style="fill:none;stroke:black;stroke-width:20px;"/>
        </g>
        <path d="M509.695,624.146C446.468,573.727 439.681,562.569 439.681,562.569" style="fill:none;stroke:black;stroke-width:20px;"/>
    </g>
</svg>
